HIERARCHY
ROOT hip
{
  OFFSET 0 0 0
  CHANNELS 6 Xposition Yposition Zposition Zrotation Yrotation Xrotation
  JOINT abdomen
  {
    OFFSET 0 20.6881 -0.73152
    CHANNELS 3 Zrotation Xrotation Yrotation
    JOINT chest
    {
      OFFSET 0 11.7043 -0.48768
      CHANNELS 3 Zrotation Xrotation Yrotation
      JOINT neck
      {
        OFFSET 0 22.1894 -2.19456
        CHANNELS 3 Zrotation Xrotation Yrotation
        JOINT head
        {
          OFFSET -0.24384 7.07133 1.2192
          CHANNELS 3 Zrotation Xrotation Yrotation
          JOINT leftEye
          {
            OFFSET 4.14528 8.04674 8.04672
            CHANNELS 3 Zrotation Xrotation Yrotation
            End Site
            {
              OFFSET 1 0 0
            }
          }
          JOINT rightEye
          {
            OFFSET -3.6576 8.04674 8.04672
            CHANNELS 3 Zrotation Xrotation Yrotation
            End Site
            {
              OFFSET 1 0 0
            }
          }
        }
      }
      JOINT rCollar
      {
        OFFSET -2.68224 19.2634 -4.8768
        CHANNELS 3 Zrotation Xrotation Yrotation
        JOINT rShldr
        {
          OFFSET -8.77824 -1.95073 1.46304
          CHANNELS 3 Zrotation Xrotation Yrotation
          JOINT rForeArm
          {
            OFFSET -28.1742 -1.7115 0.48768
            CHANNELS 3 Zrotation Xrotation Yrotation
            JOINT rHand
            {
              OFFSET -22.5879 0.773209 7.07136
              CHANNELS 3 Zrotation Xrotation Yrotation
              JOINT rThumb1
              {
                OFFSET -1.2192 -0.487915 3.41376
                CHANNELS 3 Zrotation Xrotation Yrotation
                JOINT rThumb2
                {
                  OFFSET -3.37035 -0.52449 3.41376
                  CHANNELS 3 Zrotation Xrotation Yrotation
                  End Site
                  {
                    OFFSET -1.78271 -1.18214 1.43049
                  }
                }
              }
              JOINT rIndex1
              {
                OFFSET -7.75947 0.938293 5.60832
                CHANNELS 3 Zrotation Xrotation Yrotation
                JOINT rIndex2
                {
                  OFFSET -2.54057 -0.884171 1.56538
                  CHANNELS 3 Zrotation Xrotation Yrotation
                  End Site
                  {
                    OFFSET -1.62519 -0.234802 1.16502
                  }
                }
              }
              JOINT rMid1
              {
                OFFSET -8.24714 1.18213 3.41376
                CHANNELS 3 Zrotation Xrotation Yrotation
                JOINT rMid2
                {
                  OFFSET -3.10165 -0.590103 1.0647
                  CHANNELS 3 Zrotation Xrotation Yrotation
                  End Site
                  {
                    OFFSET -2.48547 -0.328903 0.83742
                  }
                }
              }
              JOINT rRing1
              {
                OFFSET -8.82822 0.546677 1.51678
                CHANNELS 3 Zrotation Xrotation Yrotation
                JOINT rRing2
                {
                  OFFSET -2.60934 -0.819778 -0.0198488
                  CHANNELS 3 Zrotation Xrotation Yrotation
                  End Site
                  {
                    OFFSET -2.33842 -0.294052 0.168128
                  }
                }
              }
              JOINT rPinky1
              {
                OFFSET -8.27202 -0.0477905 -0.4584
                CHANNELS 3 Zrotation Xrotation Yrotation
                JOINT rPinky2
                {
                  OFFSET -1.82734 -0.647385 -0.700984
                  CHANNELS 3 Zrotation Xrotation Yrotation
                  End Site
                  {
                    OFFSET -1.69225 -0.51767 -0.607171
                  }
                }
              }
            }
          }
        }
      }
      JOINT lCollar
      {
        OFFSET 2.68224 19.2634 -4.8768
        CHANNELS 3 Zrotation Xrotation Yrotation
        JOINT lShldr
        {
          OFFSET 8.77824 -1.95073 1.46304
          CHANNELS 3 Zrotation Xrotation Yrotation
          JOINT lForeArm
          {
            OFFSET 28.1742 -1.7115 0.48768
            CHANNELS 3 Zrotation Xrotation Yrotation
            JOINT lHand
            {
              OFFSET 22.5879 0.773209 7.07136
              CHANNELS 3 Zrotation Xrotation Yrotation
              JOINT lThumb1
              {
                OFFSET 1.2192 -0.487915 3.41376
                CHANNELS 3 Zrotation Xrotation Yrotation
                JOINT lThumb2
                {
                  OFFSET 3.37035 -0.52449 3.41376
                  CHANNELS 3 Zrotation Xrotation Yrotation
                  End Site
                  {
                    OFFSET 1.78271 -1.18214 1.43049
                  }
                }
              }
              JOINT lIndex1
              {
                OFFSET 7.75947 0.938293 5.60832
                CHANNELS 3 Zrotation Xrotation Yrotation
                JOINT lIndex2
                {
                  OFFSET 2.54057 -0.884171 1.56538
                  CHANNELS 3 Zrotation Xrotation Yrotation
                  End Site
                  {
                    OFFSET 1.62519 -0.234802 1.16502
                  }
                }
              }
              JOINT lMid1
              {
                OFFSET 8.24714 1.18213 3.41376
                CHANNELS 3 Zrotation Xrotation Yrotation
                JOINT lMid2
                {
                  OFFSET 3.10165 -0.590103 1.0647
                  CHANNELS 3 Zrotation Xrotation Yrotation
                  End Site
                  {
                    OFFSET 2.48547 -0.328903 0.83742
                  }
                }
              }
              JOINT lRing1
              {
                OFFSET 8.82822 0.546677 1.51678
                CHANNELS 3 Zrotation Xrotation Yrotation
                JOINT lRing2
                {
                  OFFSET 2.60934 -0.819778 -0.0198488
                  CHANNELS 3 Zrotation Xrotation Yrotation
                  End Site
                  {
                    OFFSET 2.33842 -0.294052 0.168128
                  }
                }
              }
              JOINT lPinky1
              {
                OFFSET 8.27202 -0.0477905 -0.4584
                CHANNELS 3 Zrotation Xrotation Yrotation
                JOINT lPinky2
                {
                  OFFSET 1.82734 -0.647385 -0.700984
                  CHANNELS 3 Zrotation Xrotation Yrotation
                  End Site
                  {
                    OFFSET 1.69225 -0.51767 -0.607171
                  }
                }
              }
            }
          }
        }
      }
    }
  }
  JOINT rButtock
  {
    OFFSET -8.77824 4.35084 1.2192
    CHANNELS 3 Zrotation Xrotation Yrotation
    JOINT rThigh
    {
      OFFSET 0 -1.70687 -2.19456
      CHANNELS 3 Zrotation Xrotation Yrotation
      JOINT rShin
      {
        OFFSET 0 -36.8199 0.73152
        CHANNELS 3 Zrotation Xrotation Yrotation
        JOINT rFoot
        {
          OFFSET 0.73152 -45.1104 -5.12064
          CHANNELS 3 Zrotation Xrotation Yrotation
          End Site
          {
            OFFSET -1.1221 -3.69964 12.103
          }
        }
      }
    }
  }
  JOINT lButtock
  {
    OFFSET 8.77824 4.35084 1.2192
    CHANNELS 3 Zrotation Xrotation Yrotation
    JOINT lThigh
    {
      OFFSET 0 -1.70687 -2.19456
      CHANNELS 3 Zrotation Xrotation Yrotation
      JOINT lShin
      {
        OFFSET 0 -36.8199 0.73152
        CHANNELS 3 Zrotation Xrotation Yrotation
        JOINT lFoot
        {
          OFFSET -0.73152 -45.1104 -5.12064
          CHANNELS 3 Zrotation Xrotation Yrotation
          End Site
          {
            OFFSET 1.1221 -3.69964 12.103
          }
        }
      }
    }
  }
}
MOTION
Frames:	4
Frame Time:	0.00833333
-152.965 80.895226 26.201645 -52.62279 78.00105 -47.519657 11.283913 3.8502996 10.090074 0.43872422 -9.918441 3.2782924 -0.88263524 14.057814 10.205296 7.041625 -27.210592 21.986742 -0.019176744 -0.004746542 0.0054589063 -0.02329885 -0.061069027 0.0573755 0.016121475 0.008374322 0.021785868 87.05725 27.457067 -2.57515 -27.485027 -27.965878 64.225624 -2.002289 -36.888203 -6.045396 -0.044721402 0.020438347 -0.019759092 -0.009684661 -0.004652437 0.010605387 -0.037979987 -0.02359113 -0.024372384 7.723638 5.51297 0.37912494 -0.015761761 -0.020502191 0.014133957 2.9525304 0.972545 0.08067436 0.018945538 0.021097513 -0.007652763 10.285106 0.72752184 0.024258375 0.052744173 0.028584696 0.0206373 2.2269876 -0.7407531 -0.2223106 -0.021940457 0.030777605 -0.031115718 -104.30675 39.494675 36.40156 25.650642 -22.388258 -55.086346 0.18929414 13.567716 -1.9183606 0.005134923 0.02888099 -0.002827988 0.01961379 -0.014463388 -0.015409743 -0.020220224 0.0019084533 -0.018312989 -7.71102 5.4856753 -0.4091083 0.012159841 -0.01265144 -0.022670971 -2.8945317 0.978019 -0.087269716 -0.0017404358 -0.009215649 0.0045289006 -10.281479 0.79553586 0.01626 -0.0057519786 0.0025858087 -0.011429686 -2.196575 -0.7416467 0.22987513 0.0069807307 0.029360434 -0.022515677 12.25742 -14.337316 -7.7740707 -0.040763035 33.01314 0.83067936 2.8380737 -21.95079 9.268075 0.036376446 0.01497975 -0.030720022 25.629118 -44.439205 20.062304 2.0758393 70.63528 -2.7788665 0.091921225 -7.3026032 -1.3686286
-146.14081 81.48898 22.388145 -45.721222 79.008385 -40.04984 10.13909 2.54551 14.782128 0.6677795 -10.018456 4.465361 -1.3978244 14.263603 10.802418 6.4628224 -30.519192 23.098759 -0.01734557 0.006854171 0.012620339 -0.041465096 -0.063545525 0.04288229 0.027759088 0.006429912 0.022156164 84.18143 25.243626 -3.0317037 -27.81126 -29.28724 66.270874 -2.2053726 -38.525993 -6.3926897 -0.036390573 0.021197293 -0.030988386 -0.012679744 -0.008673064 0.006760864 -0.028344389 -0.0417689 -0.016245648 7.7187066 5.5001726 0.3844664 -0.022184074 -0.020678842 0.020880511 2.9520457 0.9938866 0.102242626 0.02608257 0.02041554 -0.0022698508 10.292133 0.7152247 0.043845117 0.03957325 0.027776094 0.020243391 2.2238543 -0.73396176 -0.22122847 -0.030597772 0.044540577 -0.028527327 -105.05029 34.8568 40.649788 25.485016 -21.982426 -54.417908 -0.076954305 4.6586094 -0.6407819 -0.01974816 0.019516084 -0.008887883 0.016736936 -0.020160934 -0.0024210773 -0.029116085 -0.00195867 -0.012943349 -7.7366 5.4964724 -0.39618793 0.015590631 -0.025791805 -0.04149134 -2.8861566 0.95935327 -0.09278328 -0.0017129249 0.0040894025 -0.0064388383 -10.272559 0.7939923 -0.0046171388 -0.0015191289 0.005000337 -0.014773305 -2.1955574 -0.74591166 0.26764634 0.0050183265 0.026654236 -0.038627107 9.795633 -8.570666 -6.41185 0.037561182 29.801214 1.1007004 0.868556 -22.403486 4.912694 0.049949422 0.0023750607 -0.030858327 22.354332 -44.341652 20.611254 0.77406925 56.48355 -1.6283443 2.9026883 -14.328415 6.0899644
-139.82784 81.486664 17.888845 -58.97564 82.13096 -53.95381 10.188215 0.5686754 18.931736 0.0009064876 -9.218075 5.4427595 -2.3376136 13.983547 10.526009 7.85365 -31.068653 23.488758 -0.013729881 0.02188494 0.019673761 -0.048569035 -0.05320282 0.018400667 0.031798773 0.0033702515 0.018596724 82.347916 26.642357 -2.9086618 -28.125608 -30.891233 68.69453 -2.1476758 -38.572933 -6.3763022 -0.02746484 0.028731233 -0.04052098 -0.0056125917 -0.0070621483 -0.013060811 -0.0070403446 -0.049850754 -0.00814326 7.728766 5.4747863 0.38569865 -0.027473396 -0.027049763 0.024943022 2.96264 0.9965871 0.12306171 0.034722205 0.011739847 0.007788731 10.283999 0.7247625 0.046752006 0.032617398 -0.0010363526 0.015432657 2.2242067 -0.71380156 -0.21504745 -0.027764091 0.042238418 -0.034298763 -108.64933 32.873875 47.223995 25.604927 -22.352797 -54.99654 -0.23195367 -3.2431438 0.42808285 -0.040416647 0.028841369 -0.021997478 0.011645397 -0.019567553 -0.0162699 -0.039150033 -0.0052226097 -0.015760804 -7.770932 5.5132737 -0.40133598 0.036887053 -0.030517751 -0.042993948 -2.8775976 0.9206655 -0.10775806 0.00943472 -0.0034870817 -0.02100309 -10.261975 0.77458817 -0.032849096 -0.00586132 0.011514593 -0.0117195435 -2.1913242 -0.7516443 0.2769637 0.008818814 0.021725496 -0.04014051 7.0745234 -5.7145033 -8.674736 -0.058733188 31.690601 1.1483359 -0.5102021 -17.566011 1.8273304 0.059276752 -0.00433493 -0.028696224 13.0265 -41.295883 15.840514 0.4538464 49.446766 -1.3034276 4.749169 -16.88111 10.653473
-134.08649 80.90524 13.123577 -146.65181 80.184975 -141.25775 9.016956 -1.5367835 21.091131 -1.3879455 -8.772779 5.9332876 -2.796392 12.929346 10.239746 8.332273 -29.078938 23.596062 -0.011138565 0.023347367 0.010856625 -0.035149503 -0.04586597 0.009958009 0.036090344 -0.0053373934 0.018679174 83.07705 28.784225 -2.2432742 -28.367188 -32.354816 70.98854 -1.9408597 -37.506897 -6.086775 -0.02991405 0.029558683 -0.03321815 0.015868545 -0.012027909 -0.003369637 0.00335688 -0.047951177 -0.005008185 7.744981 5.4666333 0.38482806 -0.026692793 -0.0430856 0.017947804 2.9518807 0.9506591 0.122535214 0.02165747 0.0080749495 0.012048859 10.266391 0.73555714 0.030776514 0.032338943 -0.030632365 0.017232196 2.2226772 -0.7022018 -0.21654604 -0.037948407 0.016609568 -0.041412953 -112.62385 31.454067 54.128834 25.322784 -21.780323 -54.06273 -0.041549735 -11.61481 1.5739238 -0.031113965 0.03988499 -0.038746394 0.0060686003 -0.0049463334 -0.026714325 -0.04257074 -0.013664001 -0.00864471 -7.773612 5.502825 -0.4078109 0.044030875 -0.032929596 -0.035796314 -2.8801866 0.9130015 -0.11292454 0.012148572 -0.029260086 -0.025737517 -10.267756 0.7583957 -0.04228023 -0.004020376 0.022813017 0.00046747696 -2.1937685 -0.73573095 0.26010972 0.0037488975 0.032127418 -0.0272681 0.65552133 -11.175791 -13.801806 -0.5124054 46.474964 1.3286875 -0.35402173 -3.8618412 2.1282725 0.062323097 -0.0020351035 -0.030041812 -2.156925 -37.72957 2.5161216 0.4236673 47.91781 -1.145907 4.8648663 -19.68473 10.348451
